Coordinates
version=1
nRows=10
nColumns=40
inDegrees=yes

Units are S.I. units (second, meters, Newtons, ...)
Angles are in degrees.

endheader
time	pelvis_tilt	pelvis_list	pelvis_rotation	pelvis_tx	pelvis_ty	pelvis_tz	hip_flexion_r	hip_adduction_r	hip_rotation_r	knee_angle_r	knee_angle_r_beta	ankle_angle_r	subtalar_angle_r	mtp_angle_r	hip_flexion_l	hip_adduction_l	hip_rotation_l	knee_angle_l	knee_angle_l_beta	ankle_angle_l	subtalar_angle_l	mtp_angle_l	lumbar_extension	lumbar_bending	lumbar_rotation	arm_flex_r	arm_add_r	arm_rot_r	elbow_flex_r	pro_sup_r	wrist_flex_r	wrist_dev_r	arm_flex_l	arm_add_l	arm_rot_l	elbow_flex_l	pro_sup_l	wrist_flex_l	wrist_dev_l
     40.69500000	     -3.89889835	     -4.40049024	      5.42005844	      1.08550283	      0.92754702	      0.43798435	      5.21192377	     -1.89621318	    -15.91043390	     29.26852777	     29.26852777	     14.14836286	     -6.66240523	     -7.99594642	     23.80546446	     -5.67468869	     -2.41954060	     23.27433112	     23.27433112	      6.70580703	    -11.83611508	      0.36655161	     -8.30455564	      3.75205801	      3.65173517	     25.06325000	    -14.55052821	     -1.73107955	     66.08709186	     45.79944054	      0.00000000	      0.00000000	      2.80279799	    -10.63519522	    -12.72631056	     35.22160309	     46.02857658	      0.00000000	      0.00000000
     40.70800000	     -3.85311794	     -4.22842733	      5.04665602	      1.08522515	      0.92786672	      0.43565600	      6.90231968	     -2.74889474	    -15.07813817	     32.96262704	     32.96262704	     13.05697350	     -8.22306206	     -8.90567841	     23.28898727	     -5.52672469	     -2.98245106	     23.27658044	     23.27658044	      7.08807982	    -11.69782689	      0.00597209	     -8.43466372	      3.53341129	      3.68055841	     23.53061214	    -14.62091098	     -1.06163582	     64.40989377	     45.81971341	      0.00000000	      0.00000000	      3.68585191	    -10.77120572	    -12.43823805	     35.78769891	     46.00903287	      0.00000000	      0.00000000
     40.72100000	     -3.78766882	     -4.18767132	      4.68167344	      1.08488692	      0.92806703	      0.43357969	      8.61435881	     -3.26264827	    -13.88905508	     36.41654792	     36.41654792	     10.38252409	    -11.26733892	    -12.69531769	     22.77509900	     -5.54167433	     -3.52513985	     23.25923861	     23.25923861	      7.19814607	    -11.55583183	     -1.05121424	     -8.46029722	      3.43220079	      2.96105209	     23.25903995	    -14.49272435	      1.70058198	     60.01162010	     45.82976258	      0.00000000	      0.00000000	      3.76948614	    -11.47962423	    -10.33890431	     37.07347007	     45.78892624	      0.00000000	      0.00000000
     40.73400000	     -3.70278487	     -3.95822898	      4.31373833	      1.08437977	      0.92810036	      0.43141362	     10.60518532	     -4.16715944	    -13.01944257	     40.52801326	     40.52801326	      8.87013198	    -12.63383449	    -13.08011837	     22.26513607	     -5.30467972	     -3.96908975	     23.33068821	     23.33068821	      7.54406560	    -11.61738935	     -1.29351177	     -8.67079062	      3.16310157	      2.94141654	     21.50877384	    -14.52545472	      2.12612406	     58.83631294	     45.83987555	      0.00000000	      0.00000000	      4.66643534	    -11.65492431	    -10.25961866	     37.84706546	     45.80052697	      0.00000000	      0.00000000
     40.74700000	     -3.58673946	     -3.83492681	      3.95860342	      1.08380834	      0.92807072	      0.42949760	     12.62449202	     -4.76060262	    -11.89199485	     44.49446624	     44.49446624	      6.74470866	    -14.65617984	    -13.72186555	     21.78560155	     -5.18629480	     -4.32234245	     23.45679185	     23.45679185	      7.73840753	    -11.80306198	     -1.90545736	     -8.85375855	      2.99825447	      2.57749666	     20.50457103	    -14.46022764	      3.62273460	     55.88600018	     45.83946673	      0.00000000	      0.00000000	      5.01876661	    -12.21105979	     -9.11106274	     39.55274915	     45.73318757	      0.00000000	      0.00000000
     40.76000000	     -3.45229999	     -3.62327978	      3.62084900	      1.08315098	      0.92803952	      0.42751184	     14.69969716	     -5.47922823	    -10.88650705	     48.48320469	     48.48320469	      4.84315931	    -15.86202786	    -13.40085034	     21.27660777	     -4.95320369	     -4.67001153	     23.57428010	     23.57428010	      8.08706440	    -11.91019859	     -2.09363122	     -9.11635557	      2.78041924	      2.45359653	     18.73570699	    -14.43720555	      3.99082221	     54.66449495	     45.85353190	      0.00000000	      0.00000000	      5.99679930	    -12.40665402	     -9.09728803	     40.22123710	     45.75413222	      0.00000000	      0.00000000
     40.77300000	     -3.27839594	     -3.56333505	      3.32268120	      1.08243529	      0.92805735	      0.42575922	     16.78871169	     -5.83604993	     -9.74907413	     52.37445142	     52.37445142	      3.53089194	    -16.69978619	    -10.61855489	     20.80684603	     -4.87114342	     -4.85734068	     23.77887131	     23.77887131	      8.38808601	    -12.15756589	     -2.31225522	     -9.36599280	      2.72793812	      2.23159224	     17.57373514	    -14.30442333	      4.77881323	     51.49799105	     45.90013643	      0.00000000	      0.00000000	      6.75182633	    -12.79624288	     -8.41476560	     41.52411069	     45.73763225	      0.00000000	      0.00000000
     40.78600000	     -3.09400134	     -3.46439700	      3.03093963	      1.08172831	      0.92810556	      0.42405481	     18.82139974	     -6.20471648	     -8.71236528	     55.97351506	     55.97351506	      2.21147121	    -17.17021937	     -8.01931550	     20.32374129	     -4.74297798	     -5.04986546	     23.98480009	     23.98480009	      8.76261124	    -12.37252423	     -2.39090539	     -9.63591370	      2.67322496	      2.04552238	     16.12559184	    -14.17801229	      5.18669563	     49.21887089	     45.93235734	      0.00000000	      0.00000000	      7.60054715	    -13.10944776	     -8.09968851	     42.67831418	     45.76014737	      0.00000000	      0.00000000
     40.79900000	     -2.90118188	     -3.34530611	      2.78105747	      1.08104328	      0.92826616	      0.42239248	     20.67555899	     -6.56934926	     -7.81190929	     59.02957433	     59.02957433	      0.42974197	    -17.65299419	     -7.32447741	     19.81340977	     -4.59381327	     -5.27412519	     24.13998127	     24.13998127	      9.08019723	    -12.49604507	     -2.49514022	     -9.93174299	      2.61937477	      1.69603463	     14.32143024	    -14.04473574	      5.40505745	     48.06485092	     45.95034712	      0.00000000	      0.00000000	      8.59366921	    -13.43555477	     -8.15158329	     43.31368000	     45.78744476	      0.00000000	      0.00000000
     40.81200000	     -2.73276399	     -3.43748119	      2.53414293	      1.08033332	      0.92856911	      0.42104041	     22.59460491	     -6.45537000	     -6.80484254	     61.92539053	     61.92539053	      0.32518499	    -17.41229928	     -2.09733117	     19.35664930	     -4.66519686	     -5.34246209	     24.31541744	     24.31541744	      9.54925698	    -12.61525580	     -2.24931491	    -10.12619234	      2.78426389	      1.46845776	     13.35206987	    -13.57386753	      5.05424796	     44.05352389	     46.07552876	      0.00000000	      0.00000000	      9.32895732	    -13.83808383	     -7.47249518	     44.79493761	     45.79242613	      0.00000000	      0.00000000
